<svg width="25" height="19" viewBox="0 0 25 19" fill="none" xmlns="http://www.w3.org/2000/svg">
<path d="M5.45628 10.5078L13.3219 16.5122C13.643 16.7573 13.7971 17.0432 13.7842 17.37C13.7714 17.6967 13.6039 17.9827 13.2818 18.2277C12.9607 18.4524 12.5862 18.57 12.1581 18.5807C11.7301 18.5913 11.3555 18.4736 11.0345 18.2277L0.439932 10.1401C0.279409 10.0176 0.165438 9.88485 0.0980178 9.74189C0.030598 9.59893 -0.00204153 9.44575 9.87841e-05 9.28237C0.00223909 9.11898 0.0359485 8.96581 0.101228 8.82284C0.166507 8.67988 0.279945 8.54713 0.441538 8.42459L11.0361 0.336983C11.3304 0.112327 11.6985 0 12.1405 0C12.5824 0 12.9634 0.112327 13.2834 0.336983C13.6044 0.582062 13.765 0.873298 13.765 1.21069C13.765 1.54808 13.6044 1.83891 13.2834 2.08317L5.45628 8.05697H23.3948C23.8496 8.05697 24.2311 8.17461 24.5393 8.40988C24.8475 8.64516 25.0011 8.93599 25 9.28237C24.9989 9.62874 24.8448 9.91998 24.5377 10.1561C24.2306 10.3922 23.8496 10.5094 23.3948 10.5078H5.45628Z" fill="white"/>
</svg>
