<svg width="44" height="44" viewBox="0 0 44 44" fill="none" xmlns="http://www.w3.org/2000/svg">
<path d="M19.9375 7.5625V17.1875C19.9375 17.9168 19.6478 18.6163 19.132 19.132C18.6163 19.6478 17.9168 19.9375 17.1875 19.9375H7.5625C6.83315 19.9375 6.13368 19.6478 5.61796 19.132C5.10223 18.6163 4.8125 17.9168 4.8125 17.1875V7.5625C4.8125 6.83315 5.10223 6.13368 5.61796 5.61796C6.13368 5.10223 6.83315 4.8125 7.5625 4.8125H17.1875C17.9168 4.8125 18.6163 5.10223 19.132 5.61796C19.6478 6.13368 19.9375 6.83315 19.9375 7.5625ZM36.4375 4.8125H26.8125C26.0832 4.8125 25.3837 5.10223 24.868 5.61796C24.3522 6.13368 24.0625 6.83315 24.0625 7.5625V17.1875C24.0625 17.9168 24.3522 18.6163 24.868 19.132C25.3837 19.6478 26.0832 19.9375 26.8125 19.9375H36.4375C37.1668 19.9375 37.8663 19.6478 38.382 19.132C38.8978 18.6163 39.1875 17.9168 39.1875 17.1875V7.5625C39.1875 6.83315 38.8978 6.13368 38.382 5.61796C37.8663 5.10223 37.1668 4.8125 36.4375 4.8125ZM17.1875 24.0625H7.5625C6.83315 24.0625 6.13368 24.3522 5.61796 24.868C5.10223 25.3837 4.8125 26.0832 4.8125 26.8125V36.4375C4.8125 37.1668 5.10223 37.8663 5.61796 38.382C6.13368 38.8978 6.83315 39.1875 7.5625 39.1875H17.1875C17.9168 39.1875 18.6163 38.8978 19.132 38.382C19.6478 37.8663 19.9375 37.1668 19.9375 36.4375V26.8125C19.9375 26.0832 19.6478 25.3837 19.132 24.868C18.6163 24.3522 17.9168 24.0625 17.1875 24.0625ZM31.625 24.0625C30.1293 24.0625 28.6671 24.506 27.4235 25.337C26.1799 26.168 25.2106 27.3491 24.6382 28.731C24.0658 30.1128 23.916 31.6334 24.2078 33.1004C24.4996 34.5674 25.2199 35.9149 26.2775 36.9725C27.3351 38.0301 28.6826 38.7504 30.1496 39.0422C31.6166 39.334 33.1372 39.1842 34.519 38.6118C35.9009 38.0395 37.082 37.0701 37.913 35.8265C38.744 34.5829 39.1875 33.1207 39.1875 31.625C39.1875 29.6193 38.3907 27.6957 36.9725 26.2775C35.5543 24.8593 33.6307 24.0625 31.625 24.0625Z" fill="#193FFF"/>
</svg>
