<svg width="44" height="44" viewBox="0 0 44 44" fill="none" xmlns="http://www.w3.org/2000/svg">
<path d="M22.0001 11.5605L6.30768 24.4973C6.30768 24.5155 6.30309 24.5424 6.29392 24.579C6.28493 24.6153 6.28015 24.6417 6.28015 24.6605V37.7603C6.28015 38.2332 6.45307 38.6431 6.79882 38.9883C7.14448 39.3337 7.5538 39.5075 8.02687 39.5075H18.5064V29.0273H25.4938V39.5078H35.9733C36.4462 39.5078 36.8561 39.3344 37.2013 38.9883C37.5471 38.6435 37.7205 38.2333 37.7205 37.7603V24.6605C37.7205 24.5878 37.7106 24.5329 37.693 24.4973L22.0001 11.5605Z" fill="#193FFF"/>
<path d="M43.6965 21.5497L37.72 16.5827V5.44761C37.72 5.19306 37.6381 4.98371 37.4739 4.81987C37.311 4.65622 37.1017 4.5744 36.8466 4.5744H31.6067C31.3518 4.5744 31.1426 4.65622 30.9787 4.81987C30.8151 4.98371 30.7334 5.19315 30.7334 5.44761V10.7694L24.0744 5.20176C23.4928 4.72868 22.8013 4.49219 22.0006 4.49219C21.2001 4.49219 20.5087 4.72868 19.9265 5.20176L0.303266 21.5497C0.121357 21.695 0.0216567 21.8906 0.00311218 22.1363C-0.0153367 22.3818 0.0482308 22.5962 0.194006 22.778L1.88605 24.7976C2.03182 24.9613 2.22262 25.0613 2.45921 25.098C2.67763 25.1163 2.89606 25.0525 3.11448 24.907L22.0001 9.1592L40.8858 24.9069C41.0317 25.0338 41.2224 25.0972 41.459 25.0972H41.541C41.7772 25.0612 41.9676 24.9605 42.1142 24.7972L43.8064 22.7779C43.9519 22.5957 44.0156 22.3817 43.9967 22.1359C43.9781 21.8909 43.878 21.6953 43.6965 21.5497Z" fill="#193FFF"/>
</svg>
