<svg width="44" height="44" viewBox="0 0 44 44" fill="none" xmlns="http://www.w3.org/2000/svg">
<g clip-path="url(#clip0_15_512)">
<path d="M22 11.5605L6.30762 24.4973C6.30762 24.5155 6.30303 24.5424 6.29386 24.579C6.28487 24.6153 6.28009 24.6417 6.28009 24.6605V37.7603C6.28009 38.2332 6.45301 38.6431 6.79876 38.9883C7.14442 39.3337 7.55374 39.5075 8.02681 39.5075H18.5064V29.0273H25.4937V39.5078H35.9732C36.4462 39.5078 36.8561 39.3344 37.2012 38.9883C37.547 38.6435 37.7205 38.2333 37.7205 37.7603V24.6605C37.7205 24.5878 37.7105 24.5329 37.693 24.4973L22 11.5605Z" fill="#343F78"/>
<path d="M43.6964 21.5497L37.7199 16.5827V5.44761C37.7199 5.19306 37.6381 4.98371 37.4739 4.81987C37.311 4.65622 37.1016 4.5744 36.8465 4.5744H31.6066C31.3518 4.5744 31.1425 4.65622 30.9786 4.81987C30.815 4.98371 30.7333 5.19315 30.7333 5.44761V10.7694L24.0743 5.20176C23.4927 4.72868 22.8012 4.49219 22.0006 4.49219C21.2 4.49219 20.5086 4.72868 19.9265 5.20176L0.303212 21.5497C0.121304 21.695 0.0216033 21.8906 0.00305877 22.1363C-0.0153901 22.3818 0.0481774 22.5962 0.193952 22.778L1.886 24.7976C2.03177 24.9613 2.22257 25.0613 2.45915 25.098C2.67758 25.1163 2.896 25.0525 3.11443 24.907L22 9.1592L40.8858 24.9069C41.0316 25.0338 41.2223 25.0972 41.4589 25.0972H41.5409C41.7771 25.0612 41.9676 24.9605 42.1141 24.7972L43.8063 22.7779C43.9518 22.5957 44.0156 22.3817 43.9967 22.1359C43.978 21.8909 43.8779 21.6953 43.6964 21.5497Z" fill="#343F78"/>
</g>
<defs>
<clipPath id="clip0_15_512">
<rect width="44" height="44" fill="white"/>
</clipPath>
</defs>
</svg>
