<svg width="44" height="44" viewBox="0 0 44 44" fill="none" xmlns="http://www.w3.org/2000/svg">
<g clip-path="url(#clip0_15_391)">
<path d="M7.24578 17.4315C7.13282 17.4315 7.02097 17.3817 6.94591 17.2859C6.91359 17.245 3.69752 13.1709 1.03028 12.2427C0.831854 12.1736 0.727067 11.9566 0.796181 11.7582C0.865296 11.559 1.08267 11.4564 1.28073 11.5233C4.15903 12.5259 7.40817 16.6415 7.54491 16.8162C7.67459 16.9819 7.64561 17.2205 7.48025 17.3505C7.4104 17.4048 7.3279 17.4315 7.24578 17.4315Z" fill="#343F78"/>
<path d="M7.34056 15.792C7.33016 15.792 7.31975 15.7912 7.30935 15.7905L5.65654 15.6567C5.44733 15.6404 5.29127 15.4568 5.30799 15.2472C5.32508 15.0377 5.51088 14.8861 5.71822 14.8987L7.37103 15.0325C7.58023 15.0488 7.7363 15.2324 7.71958 15.4419C7.70323 15.6411 7.53676 15.792 7.34056 15.792Z" fill="#343F78"/>
<path d="M4.78031 16.3069C4.77102 16.3069 4.7621 16.3069 4.75281 16.3061C4.54324 16.2913 4.38532 16.1085 4.40055 15.8989L4.5046 14.4452C4.51946 14.2357 4.70116 14.0729 4.91111 14.093C5.12068 14.1078 5.27861 14.2907 5.26337 14.5002L5.15933 15.9539C5.14521 16.1538 4.978 16.3069 4.78031 16.3069Z" fill="#343F78"/>
<path d="M6.22146 14.1752C5.97031 13.9164 5.69636 13.6576 5.41479 13.3989C6.11491 13.5739 6.77703 13.8707 7.36297 14.2665L6.22146 14.1752Z" fill="#343F78"/>
<path d="M10.2928 18.6805H5.71156C5.17885 18.2087 4.76792 17.6303 4.4635 17.0291C4.53963 17.0443 4.61571 17.0595 4.69179 17.0672H4.78311C5.06473 17.0672 5.33106 16.9606 5.52893 16.7856C5.84854 17.1432 6.13011 17.4781 6.34321 17.752C6.56389 18.0336 6.89111 18.1934 7.24881 18.1934C7.49991 18.1934 7.74344 18.1097 7.94892 17.9499C8.44355 17.5618 8.53491 16.8389 8.14679 16.3442C8.13156 16.329 8.11632 16.2985 8.0859 16.2681C8.30657 16.0854 8.45117 15.8115 8.48164 15.4995C8.48925 15.4157 8.48164 15.3244 8.4664 15.2407C8.97626 15.7962 9.372 16.4584 9.63076 17.1965C9.79816 17.6912 10.0265 18.1934 10.2928 18.6805Z" fill="#343F78"/>
<path d="M18.717 17.7896C18.2763 17.7896 17.9181 18.1485 17.9181 18.5892C17.9181 18.6204 17.9196 18.6509 17.9225 18.6799H19.5185C19.5222 18.6494 19.5241 18.6189 19.5241 18.5892C19.5241 18.1485 19.1622 17.7896 18.717 17.7896Z" fill="#343F78"/>
<path d="M1.34351 20.6515V22.7591C1.34351 28.3062 4.87319 33.2349 10.1263 35.0237C11.1351 35.3659 12.1766 35.5819 13.2339 35.6685C13.5864 35.6974 13.9405 35.7118 14.2958 35.7118H21.3352C22.7568 35.7118 24.1596 35.48 25.5047 35.0237C26.2483 34.7762 26.9732 34.4529 27.6618 34.0635C31.7492 31.7716 34.2875 27.4404 34.2875 22.7591V20.6515C34.2875 20.0295 33.8223 19.5115 33.2054 19.4468C33.1534 19.4394 33.1177 19.4401 33.085 19.4409H30.9009H23.9073H19.8053H17.6364H10.9627H5.57475H2.55339C1.88639 19.4409 1.34351 19.9841 1.34351 20.6515ZM6.78909 29.8014C6.9366 29.652 7.17739 29.6506 7.32714 29.7984C9.19621 31.6504 11.6713 32.6708 14.2958 32.6708C14.5062 32.6708 14.6764 32.841 14.6764 33.0513C14.6764 33.2616 14.5062 33.4318 14.2958 33.4318C11.4692 33.4318 8.80419 32.3334 6.79132 30.3395C6.64231 30.1916 6.64119 29.9508 6.78909 29.8014ZM4.79219 26.7225C4.98393 26.6355 5.20911 26.718 5.29717 26.9083C5.56917 27.4954 5.90063 28.0594 6.28336 28.5841C6.4071 28.7543 6.36957 28.9921 6.19975 29.1162C6.13212 29.1653 6.05372 29.189 5.97606 29.189C5.85864 29.189 5.7427 29.1348 5.66801 29.033C5.2563 28.4674 4.89919 27.8603 4.60677 27.2278C4.51833 27.0368 4.60156 26.8109 4.79219 26.7225Z" fill="#343F78"/>
<path d="M23.8594 36.2304C23.7239 36.2557 23.589 36.2834 23.4527 36.3046C23.2176 36.3413 22.9812 36.3675 22.7443 36.3919C22.6288 36.4038 22.5141 36.4205 22.3982 36.4295C22.0452 36.4568 21.6909 36.4728 21.3351 36.4728H14.2958C13.9399 36.4728 13.5855 36.4568 13.2323 36.4294C13.118 36.4206 13.0048 36.404 12.8908 36.3923C12.6521 36.3678 12.4138 36.3414 12.1769 36.3044C12.0427 36.2835 11.9098 36.2562 11.7763 36.2312C11.5612 36.1911 11.3467 36.1484 11.1336 36.0979C10.9932 36.0647 10.854 36.0273 10.7145 35.9897C10.6047 35.9599 10.4934 35.9368 10.3842 35.9043V35.9474C10.3842 37.4627 11.6163 38.6949 13.1313 38.6949H22.4993C24.0143 38.6949 25.2464 37.4627 25.2464 35.9474V35.9043C25.139 35.9363 25.0296 35.959 24.9215 35.9883C24.7791 36.0269 24.6368 36.065 24.4933 36.099C24.2831 36.1487 24.0715 36.1906 23.8594 36.2304Z" fill="#343F78"/>
<path d="M35.7993 4.89697C36.745 6.59437 36.227 9.51847 34.2362 13.7655C33.4904 15.3587 32.574 17.044 31.5768 18.6801H32.6322C33.5871 17.1016 34.4631 15.4773 35.1678 13.9684C36.8804 10.3202 37.4668 7.69162 36.9109 6.15474C36.7044 5.58464 36.3356 5.17557 35.7993 4.89697Z" fill="#343F78"/>
<path d="M27.4024 10.5616C26.2371 13.0483 25.1561 15.9801 24.4052 18.68H30.6898C31.7674 16.9462 32.7532 15.1395 33.5473 13.4429C35.7853 8.66802 36.0941 5.67007 34.4654 4.53302C34.3417 4.44384 34.2161 4.37175 34.0775 4.30561C32.042 3.35212 29.7954 5.45827 27.4024 10.5616Z" fill="#343F78"/>
<path d="M36.5705 22.7593V20.6517C36.5705 19.9888 36.031 19.4492 35.3681 19.4492H34.6343C34.8907 19.7834 35.0485 20.198 35.0485 20.6517V22.7593C35.0485 27.7155 32.3612 32.3016 28.0352 34.7273C27.3869 35.0937 26.7036 35.3949 26.0075 35.6443V35.9476C26.0075 37.0659 25.4719 38.0522 24.6544 38.6951H24.7824C26.2973 38.6951 27.5295 37.4629 27.5295 35.9476L27.5366 35.3798C27.5388 35.2185 27.6421 35.0759 27.7945 35.0238C33.0438 33.2387 36.5705 28.31 36.5705 22.7593Z" fill="#343F78"/>
<path d="M18.7553 13.9393C18.7553 14.6851 18.1464 15.2939 17.4006 15.2939C16.6472 15.2939 16.0385 14.6851 16.0385 13.9393C16.0385 13.1859 16.6472 12.5771 17.4006 12.5771C18.1464 12.5771 18.7553 13.1859 18.7553 13.9393Z" fill="#343F78"/>
<path d="M14.0903 14.0536C13.9533 14.0536 13.8087 14.0231 13.6717 13.9775L11.168 13.0643C9.85148 12.5848 9.11328 11.215 9.48621 9.93654C9.69165 9.22881 10.1939 8.64282 10.856 8.33078C11.4572 8.04159 12.1649 8.01117 12.8042 8.23946L15.4144 9.19072C16.0536 9.42663 16.3885 10.142 16.1526 10.7812L15.2622 13.2317C15.0796 13.7339 14.6001 14.0536 14.0903 14.0536Z" fill="#343F78"/>
<path d="M22.9408 12.3337L20.5436 13.4905C20.3686 13.5742 20.1859 13.6198 19.9957 13.6198C19.8586 13.6198 19.7293 13.597 19.5923 13.5514C19.2803 13.4372 19.0292 13.2165 18.8846 12.9121L17.7507 10.5682C17.667 10.3932 17.6289 10.2105 17.6289 10.0279C17.6289 9.56366 17.8801 9.12231 18.3214 8.9092L20.8251 7.69923C21.4339 7.40243 22.1417 7.36439 22.7733 7.59268C23.4582 7.82859 24.0138 8.3613 24.2953 9.04618C24.79 10.279 24.1964 11.7249 22.9408 12.3337Z" fill="#343F78"/>
<path d="M16.4342 16.8847C16.4342 17.6381 15.8254 18.2469 15.072 18.2469C14.3263 18.2469 13.7098 17.6381 13.7098 16.8847C13.7098 16.1313 14.3263 15.5225 15.072 15.5225C15.8254 15.5225 16.4342 16.1313 16.4342 16.8847Z" fill="#343F78"/>
</g>
<defs>
<clipPath id="clip0_15_391">
<rect width="44" height="44" fill="white"/>
</clipPath>
</defs>
</svg>
