<svg width="42" height="42" viewBox="0 0 42 42" fill="none" xmlns="http://www.w3.org/2000/svg">
<path d="M37.8583 3.9082H4.14167C2.8 3.9082 1.75 4.9582 1.75 6.24154V28.1165C1.75 29.3999 2.8 30.5082 4.14167 30.5082H37.9167C39.2 30.5082 40.3083 29.4582 40.3083 28.1165V6.24154C40.25 4.9582 39.2 3.9082 37.8583 3.9082ZM21 26.8332C15.6917 26.8332 11.3167 22.5165 11.3167 17.1499C11.3167 11.8415 15.6333 7.46654 21 7.46654C26.3083 7.46654 30.6833 11.7832 30.6833 17.1499C30.6833 22.5165 26.3083 26.8332 21 26.8332Z" fill="#343F78"/>
<path d="M25.375 17.208C25.375 17.7913 25.0834 18.3163 24.5584 18.6663L19.7167 21.583C19.425 21.758 19.1334 21.8163 18.8417 21.8163C18.55 21.8163 18.2584 21.758 18.025 21.583C17.5 21.2913 17.15 20.708 17.15 20.1247V14.2913C17.15 13.708 17.4417 13.1247 18.025 12.833C18.55 12.5413 19.1917 12.5413 19.7167 12.833L24.5584 15.7497C25.0834 16.0413 25.375 16.5663 25.375 17.208Z" fill="#343F78"/>
<path d="M40.25 35.8751C40.25 36.1668 40.0167 36.4584 39.6667 36.4584H11.725C11.375 37.4501 10.325 38.1501 8.98336 38.1501C7.70002 38.1501 6.59169 37.4501 6.24169 36.4584H2.85836C2.50836 36.4584 2.27502 36.1668 2.27502 35.8751C2.27502 35.5251 2.50836 35.2918 2.85836 35.2918H6.24169C6.53336 34.3001 7.64169 33.6001 8.98336 33.6001C10.325 33.6001 11.375 34.3001 11.725 35.2918H39.6667C40.0167 35.2918 40.25 35.5251 40.25 35.8751Z" fill="#343F78"/>
</svg>
